<?xml version="1.0" encoding="utf-8"?>
<!-- Generator: Adobe Illustrator 22.1.0, SVG Export Plug-In . SVG Version: 6.00 Build 0)  -->
<svg version="1.1" id="Layer_1" xmlns="http://www.w3.org/2000/svg" xmlns:xlink="http://www.w3.org/1999/xlink" x="0px" y="0px"
	 viewBox="0 0 262.8 72" style="enable-background:new 0 0 262.8 72;" xml:space="preserve">
<style type="text/css">
	.st0{fill:#173963;}
	.st1{fill:#2091C7;}
	.st2{fill:#A1CE60;}
</style>
<g>
	<g>
		<path class="st0" d="M81,43.8c-0.7-0.6-1.8-0.5-2.5,0.2c-0.7,0.8-1.6,1.3-2.6,1.3c-0.9,0-1.7-0.4-2.3-1.1
			c-0.7-0.7-1.1-1.7-1.1-2.7c0,0,0,0,0-0.1v-1.7c0,0,0,0,0,0V27.5h2.9c1,0,1.8-0.8,1.8-1.8c0-1-0.8-1.8-1.8-1.8h-2.9v-4.2
			c0-1-0.8-1.8-1.8-1.8c-1,0-1.8,0.8-1.8,1.8v18.7l0,0v3.3l0,0c0.1,3.9,3.2,7.1,6.9,7.1c2.1,0,4-0.9,5.3-2.6
			C81.9,45.5,81.8,44.4,81,43.8z"/>
	</g>
	<g>
		<path class="st0" d="M102.8,39.9v-6.7c0-1,0.4-2,1.1-2.7c0.6-0.7,1.5-1.1,2.4-1.1c0.9,0,1.7,0.4,2.3,1.1c0.7,0.7,1.1,1.7,1.1,2.7
			c0,1,0.8,1.8,1.8,1.8c1,0,1.8-0.8,1.8-1.8c0-4-3.1-7.3-6.9-7.3c-3.8,0-7,3.3-7,7.3v6l0,0v2.7h0c0.1,3.9,3.2,7,6.9,7
			c3.8,0,7-3.3,7-7.3c0-1-0.8-1.8-1.8-1.8c-1,0-1.8,0.8-1.8,1.8c0,1-0.4,2-1.1,2.7c-0.7,0.7-1.5,1.1-2.4,1.1c-0.9,0-1.7-0.4-2.3-1.1
			c-0.7-0.7-1.1-1.7-1.1-2.7c0-0.1,0-0.2,0-0.3L102.8,39.9C102.8,39.9,102.8,39.9,102.8,39.9z"/>
	</g>
	<g>
		<path class="st0" d="M129.7,33.1V33c0-0.1,0-0.1,0-0.2v-0.1h0c-0.1-3.9-3.2-7-6.9-7c-1.2,0-2.4,0.4-3.4,0.9v-0.8v-6
			c0-1-0.8-1.8-1.8-1.8c-1,0-1.8,0.8-1.8,1.8v9.7c0,0,0,0,0,0v2.9h0V33c0,0,0,0,0,0c0,0,0,0,0,0v1.8c0,0,0,0,0,0V47
			c0,1,0.8,1.8,1.8,1.8c1,0,1.8-0.8,1.8-1.8V34.8c0,0,0,0,0,0v-1.7c0,0,0,0,0-0.1c0-1,0.4-2,1.1-2.7c0.6-0.7,1.5-1.1,2.3-1.1
			c0.9,0,1.7,0.4,2.4,1.1c0.7,0.7,1,1.6,1.1,2.6v2.6l0,0V47c0,1,0.8,1.8,1.8,1.8c1,0,1.8-0.8,1.8-1.8V34.8c0,0,0,0,0,0L129.7,33.1
			C129.7,33.2,129.7,33.2,129.7,33.1z"/>
	</g>
	<g>
		<path class="st0" d="M86.5,38.8C86.5,38.8,86.5,38.8,86.5,38.8c0.6,0.3,1.2,0.6,1.9,0.7c0,0,0,0,0,0c0.2,0,0.4,0.1,0.7,0.1
			c0,0,0,0,0,0c0.2,0,0.4,0,0.6,0c0.2,0,0.4,0,0.7,0c3.6-0.3,6.4-3.3,6.4-7c0-3.9-3.1-7-7-7s-7,3.1-7,7c0,0,0,0,0,0c0,0,0,0,0,0V33
			v1.8v1.9v4.9c0,4,3.1,7.3,6.9,7.3c1.8,0,3.6-0.6,4.8-1.7c1.4-1.2,2.1-2.9,2.1-4.8c0-1-0.8-1.8-1.8-1.8c-1,0-1.8,0.8-1.8,1.8
			c0,0.9-0.3,1.7-0.9,2.2c-0.6,0.5-1.5,0.8-2.5,0.8c-0.9,0-1.7-0.4-2.3-1.1c-0.7-0.7-1.1-1.7-1.1-2.7v-2.8
			C86.4,38.8,86.4,38.8,86.5,38.8z M89.8,29.2c1.9,0,3.4,1.5,3.4,3.4c0,1.9-1.5,3.4-3.4,3.4s-3.4-1.5-3.4-3.4
			C86.3,30.7,87.9,29.2,89.8,29.2z"/>
	</g>
	<g>
		<path class="st0" d="M196.1,38.8C196.1,38.8,196.1,38.8,196.1,38.8c0.6,0.3,1.2,0.6,1.9,0.7c0,0,0,0,0,0c0.2,0,0.4,0.1,0.7,0.1
			c0,0,0,0,0,0c0.2,0,0.4,0,0.6,0c0.2,0,0.4,0,0.7,0c3.6-0.3,6.4-3.3,6.4-7c0-3.9-3.1-7-7-7c-3.9,0-7,3.1-7,7c0,0,0,0,0,0
			c0,0,0,0,0,0V33v1.8v1.9v4.9c0,4,3.1,7.3,6.9,7.3c1.8,0,3.6-0.6,4.8-1.7c1.4-1.2,2.1-2.9,2.1-4.8c0-1-0.8-1.8-1.8-1.8
			c-1,0-1.8,0.8-1.8,1.8c0,0.9-0.3,1.7-0.9,2.2c-0.6,0.5-1.5,0.8-2.5,0.8c-0.9,0-1.7-0.4-2.3-1.1c-0.7-0.7-1.1-1.7-1.1-2.7v-2.8
			C196,38.8,196,38.8,196.1,38.8z M199.4,29.2c1.9,0,3.4,1.5,3.4,3.4c0,1.9-1.5,3.4-3.4,3.4c-1.9,0-3.4-1.5-3.4-3.4
			C196,30.7,197.5,29.2,199.4,29.2z"/>
	</g>
	<g>
		<path class="st0" d="M163.2,38.8C163.2,38.8,163.2,38.8,163.2,38.8c0.6,0.3,1.2,0.6,1.9,0.7c0,0,0,0,0,0c0.2,0,0.4,0.1,0.7,0.1
			c0,0,0,0,0,0c0.2,0,0.4,0,0.6,0c0.2,0,0.4,0,0.7,0c3.6-0.3,6.4-3.3,6.4-7c0-3.9-3.1-7-7-7c-3.9,0-7,3.1-7,7c0,0,0,0,0,0
			c0,0,0,0,0,0V33v1.8v1.9v4.9c0,4,3.1,7.3,6.9,7.3c1.8,0,3.6-0.6,4.8-1.7c1.4-1.2,2.1-2.9,2.1-4.8c0-1-0.8-1.8-1.8-1.8
			c-1,0-1.8,0.8-1.8,1.8c0,0.9-0.3,1.7-0.9,2.2c-0.6,0.5-1.5,0.8-2.5,0.8c-0.9,0-1.7-0.4-2.3-1.1c-0.7-0.7-1.1-1.7-1.1-2.7v-2.8
			C163.1,38.8,163.1,38.8,163.2,38.8z M166.5,29.2c1.9,0,3.4,1.5,3.4,3.4c0,1.9-1.5,3.4-3.4,3.4c-1.9,0-3.4-1.5-3.4-3.4
			C163,30.7,164.6,29.2,166.5,29.2z"/>
	</g>
	<g>
		<path class="st0" d="M145.4,20.6c-1.3-1.6-3.2-2.6-5.3-2.6c-3.7,0-6.8,3.1-6.9,7l0,0v3.4l0,0V47c0,1,0.8,1.8,1.8,1.8
			c1,0,1.8-0.8,1.8-1.8V35.2h3.4c1,0,1.8-0.7,1.8-1.8c0-1-0.8-1.8-1.8-1.8h-3.4v-4.6c0,0,0,0,0,0v-1.7c0,0,0,0,0-0.1
			c0-1,0.4-2,1.1-2.7c0.6-0.7,1.5-1.1,2.3-1.1c1,0,1.9,0.4,2.6,1.3c0.6,0.7,1.7,0.8,2.5,0.2C145.9,22.4,146,21.3,145.4,20.6z"/>
	</g>
	<g>
		<path class="st0" d="M152.7,25.7c-1.3,0-2.6,0.4-3.7,1.1c-0.3-0.5-0.9-0.8-1.5-0.8c-1,0-1.8,0.8-1.8,1.8V33c0,0,0,0,0,0l0,1.8
			c0,0,0,0,0,0l0,12.3c0,1,0.8,1.8,1.8,1.8c1,0,1.8-0.8,1.8-1.8V35.9v-1.1V33c0-1,0.4-2,1.1-2.7c0.6-0.7,1.5-1.1,2.3-1.1
			c1,0,1.9,0.4,2.6,1.3c0.6,0.7,1.7,0.8,2.5,0.2c0.8-0.6,0.9-1.7,0.3-2.5C156.6,26.7,154.7,25.7,152.7,25.7z"/>
	</g>
	<g>
		<path class="st0" d="M188.3,18.1c-1,0-1.8,0.8-1.8,1.8v6c0,0,0,0,0,0l0,0.9c-1-0.6-2.2-1-3.4-1h0c-3,0-5.7,2.2-6.6,5.1
			c-0.2,0.6-0.3,1.3-0.3,1.9l0,0v0.1c0,0.1,0,0.1,0,0.2c0,0,0,0.1,0,0.1v1.7c0,0,0,0,0,0v6.7c0,4,3.1,7.3,6.9,7.3c3.8,0,7-3.3,7-7.3
			v-6.7c0,0,0,0,0,0l0-1.8c0,0,0,0,0,0c0,0,0,0,0-0.1l0-3.4c0,0,0,0,0,0v-9.7C190,18.9,189.2,18.1,188.3,18.1z M185.5,44.2
			c-0.7,0.7-1.5,1.1-2.4,1.1c-0.9,0-1.7-0.4-2.3-1.1c-0.7-0.7-1.1-1.7-1.1-2.7v-6.7c0,0,0,0,0,0l0-1.6c0-0.1,0-0.1,0-0.2
			c0-1,0.4-1.9,1.1-2.7c0.6-0.7,1.5-1.1,2.3-1.1c0.9,0,1.7,0.4,2.4,1.1c0.6,0.7,1,1.6,1,2.5v4.1l0,0v4.6
			C186.5,42.6,186.1,43.5,185.5,44.2z"/>
	</g>
	<g>
		<path class="st0" d="M225.7,19.8c-1,0-1.8,0.8-1.8,1.8c0,1,0.8,1.8,1.8,1.8c1,0,1.8-0.8,1.8-1.8C227.5,20.6,226.7,19.8,225.7,19.8
			z"/>
	</g>
	<g>
		<path class="st0" d="M225.7,25.7c-1,0-1.8,0.8-1.8,1.8V33c0,0,0,0,0,0l0,1.6c0,0,0,0,0,0v0.2V47c0,1,0.8,1.8,1.8,1.8
			c1,0,1.8-0.8,1.8-1.8V34.9v-0.2c0,0,0,0,0-0.1V33c0,0,0,0,0,0v-5.6C227.5,26.5,226.7,25.7,225.7,25.7z"/>
	</g>
	<g>
		<path class="st0" d="M233.6,39.9v-6.7c0-1,0.4-2,1.1-2.7c0.6-0.7,1.5-1.1,2.4-1.1c0.9,0,1.7,0.4,2.3,1.1c0.7,0.7,1.1,1.7,1.1,2.7
			c0,1,0.8,1.8,1.8,1.8c1,0,1.8-0.8,1.8-1.8c0-4-3.1-7.3-6.9-7.3c-3.8,0-7,3.3-7,7.3v6.7c0,0,0,0,0,0v1.6c0,0,0,0.1,0,0.1
			c0,0.1,0,0.1,0,0.2v0.2l0,0c0.2,3.8,3.2,6.9,6.9,6.9c3.8,0,7-3.3,7-7.3c0-1-0.8-1.8-1.8-1.8c-1,0-1.8,0.8-1.8,1.8
			c0,1-0.4,2-1.1,2.7c-0.7,0.7-1.5,1.1-2.4,1.1c-0.9,0-1.7-0.4-2.3-1.1c-0.7-0.7-1.1-1.7-1.1-2.7c0,0,0,0,0,0L233.6,39.9
			C233.6,39.9,233.6,39.9,233.6,39.9z"/>
	</g>
	<g>
		<path class="st0" d="M216.1,25.7c-1.3,0-2.6,0.4-3.7,1.1c-0.3-0.5-0.9-0.8-1.5-0.8c-1,0-1.8,0.8-1.8,1.8v4.9l0,0v4.7l0,0V47
			c0,1,0.8,1.8,1.8,1.8c1,0,1.8-0.8,1.8-1.8V34.8c0,0,0,0,0,0v-1.7c0,0,0-0.1,0-0.1c0-1,0.4-2,1.1-2.7c0.6-0.7,1.5-1.1,2.3-1.1
			c1,0,1.9,0.4,2.6,1.3c0.6,0.7,1.7,0.8,2.5,0.2c0.8-0.6,0.9-1.7,0.3-2.5C220,26.7,218.1,25.7,216.1,25.7z"/>
	</g>
	<g>
		<path class="st0" d="M258.4,33.8c1.6-1.3,2.6-3.3,2.6-5.5c0-0.9-0.8-1.7-1.7-1.7c-0.9,0-1.7,0.8-1.7,1.7c0,2-1.6,3.7-3.7,3.7
			s-3.7-1.6-3.7-3.7V20c0-0.9-0.8-1.7-1.7-1.7c-0.9,0-1.7,0.8-1.7,1.7v18.9v8.4c0,0.9,0.8,1.7,1.7,1.7c0.9,0,1.7-0.8,1.7-1.7v-8.4
			c0-1.9,1.6-3.5,3.5-3.5s3.5,1.6,3.5,3.5v8.4c0,0.9,0.8,1.7,1.7,1.7s1.7-0.8,1.7-1.7v-8.4C260.7,36.9,259.8,35,258.4,33.8z"/>
	</g>
</g>
<g>
	<path class="st1" d="M1.6,36.9L1.6,36.9c-0.2,0-0.4,0-0.6,0.1c-0.2,0.1-0.3,0.3-0.3,0.5c-0.8,3.7-0.9,7.7-0.1,11.5
		c0,0.2,0.2,0.4,0.3,0.5c0.1,0.1,0.3,0.1,0.4,0.1c0.1,0,0.1,0,0.2,0c0.4-0.1,0.7-0.5,0.6-0.9c-0.7-3.6-0.6-7.3,0.1-10.9
		C2.3,37.4,2,37,1.6,36.9z"/>
	<path class="st1" d="M56,36.4c-1.4-5.5-4.4-10.4-8.6-14.2c-1-0.9-2-1.7-3.2-2.4c0-0.3-0.2-0.7-0.4-0.9c-0.3-0.2-0.6-0.4-1-0.3
		c-0.4,0-0.7,0.2-0.9,0.4c-0.2,0.3-0.4,0.6-0.3,1c0,0.4,0.2,0.7,0.4,0.9c0.3,0.2,0.6,0.4,1,0.3c0.1,0,0.3,0,0.4-0.1
		c1,0.7,2,1.5,2.9,2.3c4,3.6,6.8,8.2,8.1,13.5c1.3,5.2,1,10.6-0.8,15.6c-0.2,0.1-0.4,0.2-0.6,0.4c-0.2,0.3-0.4,0.6-0.3,1
		c0,0.4,0.2,0.7,0.4,0.9c0.2,0.2,0.6,0.3,0.9,0.3c0.4,0,0.7-0.2,1-0.4c0.2-0.3,0.4-0.6,0.3-1c0-0.3-0.1-0.5-0.3-0.7
		C57.1,47.6,57.4,41.8,56,36.4z"/>
	<path class="st1" d="M45.7,64.1c-0.3-0.1-0.7-0.1-1,0.1c-0.3,0.2-0.5,0.4-0.7,0.8c0,0.1-0.1,0.3-0.1,0.4c-1,0.7-2.1,1.4-3.2,2
		c-4.8,2.5-10.1,3.5-15.5,2.9c-5.3-0.6-10.3-2.7-14.4-6.2c0-0.2,0-0.5-0.2-0.7c-0.2-0.3-0.4-0.5-0.8-0.7c-0.3-0.1-0.7-0.1-1,0.1
		c-0.3,0.2-0.5,0.4-0.7,0.8c-0.1,0.3-0.1,0.7,0.1,1C8.7,65,9,65.2,9.3,65.3c0.2,0.1,0.5,0.1,0.7,0c5.1,4.3,11.6,6.7,18.4,6.7
		c4.6,0,9.1-1.1,13.2-3.2c1.2-0.6,2.3-1.3,3.4-2.1c0.3,0.1,0.7,0.1,1-0.1c0.3-0.2,0.5-0.4,0.7-0.8c0.1-0.3,0.1-0.7-0.1-1
		C46.4,64.5,46.1,64.2,45.7,64.1z"/>
	<path class="st1" d="M3.7,55.1c-0.4,0-0.7,0.2-0.9,0.5c-0.2,0.3-0.3,0.6-0.3,1c0.1,0.7,0.7,1.2,1.3,1.2c0.1,0,0.1,0,0.2,0
		c0.4,0,0.7-0.2,0.9-0.5c0.2-0.3,0.3-0.6,0.3-1C5.1,55.5,4.4,55,3.7,55.1z"/>
	<path class="st1" d="M37,63.6c-0.1,0.2-0.1,0.5,0,0.7c0,0.1,0.1,0.2,0.1,0.3c0.3,0.7,1.1,0.9,1.8,0.6c0.7-0.3,0.9-1.1,0.6-1.8l0,0
		c-0.3-0.7-1.1-0.9-1.8-0.6C37.3,63,37.1,63.3,37,63.6z"/>
	<path class="st1" d="M48.8,35.6c0.2,0.1,0.5,0.1,0.7,0.1c0.1,0,0.2-0.1,0.3-0.1c0.7-0.3,1-1.1,0.7-1.8c-0.3-0.7-1.1-1-1.8-0.7l0,0
		c-0.7,0.3-1,1.1-0.7,1.8C48.2,35.2,48.5,35.4,48.8,35.6z"/>
	<path class="st1" d="M4.9,46.6c0.9,6.3,4.1,11.9,9.2,15.7c4.2,3.2,9.1,4.9,14.3,4.9c0.7,0,1.4,0,2.1-0.1c0.3,0.3,0.6,0.4,1,0.4
		c0.1,0,0.1,0,0.2,0c0.4,0,0.7-0.2,0.9-0.5c0.2-0.3,0.3-0.6,0.3-1c-0.1-0.7-0.8-1.2-1.5-1.1c-0.4,0-0.7,0.2-0.9,0.5
		c0,0-0.1,0.1-0.1,0.1C24.9,66,19.4,64.4,15,61.1c-4.7-3.6-7.8-8.8-8.6-14.7c-0.7-4.8,0.3-9.8,2.7-14c0,0,0,0,0.1,0
		c0.4,0,0.7-0.2,0.9-0.5c0.2-0.3,0.3-0.6,0.3-1c-0.1-0.7-0.8-1.2-1.5-1.1c-0.7,0.1-1.2,0.8-1.1,1.5c0,0.1,0,0.2,0.1,0.3
		C5.2,36.2,4.2,41.5,4.9,46.6z"/>
	<path class="st1" d="M51.4,40.1c-0.4,0.1-0.7,0.4-0.7,0.9c0.8,6.9-1.8,13.9-6.9,18.7c-0.3,0.3-0.3,0.8,0,1.1
		c0.1,0.2,0.3,0.2,0.5,0.3c0.1,0,0.2,0,0.3,0c0.1,0,0.2-0.1,0.3-0.2c5.5-5.1,8.2-12.6,7.4-20c0-0.2-0.1-0.4-0.3-0.5
		C51.8,40.1,51.6,40.1,51.4,40.1z"/>
</g>
<g>
	<g>
		<g>
			<path class="st0" d="M14.9,34c-1.1,0-2,0.9-2,2v7.4c0,9,6.9,16.2,15.4,16.2c8.5,0,15.3-7.3,15.3-16.2V32.2c0-1.1-0.9-2-2-2
				c-1.1,0-2,0.9-2,2v11.1c0,3.4-1.2,6.5-3.5,8.8c-2.1,2.2-5,3.5-7.9,3.5c-2.9,0-5.7-1.2-8-3.5l-0.1-0.1c-2.2-2.3-3.4-5.5-3.4-8.7
				v-7.4C16.9,34.8,16,34,14.9,34z"/>
		</g>
		<path class="st0" d="M35.1,25.4c-1,0-1.8,0.8-1.8,1.8c0,4.5,0,5.8,0,5.8c-0.1,0.8-0.8,1.4-1.6,1.4c-0.9,0-1.7-0.7-1.7-1.7v-6.6
			c0-0.9-0.8-1.7-1.7-1.7c0,0,0,0,0,0c0,0,0,0,0,0c-0.9,0-1.7,0.7-1.7,1.7v6.6c0,0.9-0.7,1.7-1.7,1.7c-0.8,0-1.5-0.6-1.6-1.4
			c0,0,0-10.6,0-15.2c0-1-0.8-1.8-1.8-1.8s-1.8,0.8-1.8,1.8V38c0,1,0.8,1.8,1.8,1.8c0.5,0,0.9-0.2,1.3-0.6c1.5-1.4,3.5-2.1,5.5-2.1
			c0,0,0,0,0,0c0,0,0,0,0,0c2,0,4,0.8,5.5,2.1c0.3,0.4,0.8,0.6,1.3,0.6c1,0,1.8-0.8,1.8-1.8V27.1C36.8,26.2,36,25.4,35.1,25.4z"/>
	</g>
</g>
<path class="st2" d="M27.8,13.9c-0.7,1.2-1.7,2.2-3,2.9c-0.1-0.6-0.3-1.2-0.6-1.6c-0.6-0.8-1.4-1.3-2.4-1.4c-0.1,0-0.3,0-0.4,0
	c-1.8,0-3.3,1.4-3.4,3.1c-1.9-1-3.3-2.8-3.3-5c0-1.7,1.5-3.1,3.2-3.1c-0.7,0.2-1.2,0.9-1.2,1.6c0,0.9,0.8,1.7,1.8,1.7
	c0.6,0,1.1-0.2,1.4-0.6c0.3-0.3,0.4-0.7,0.4-1.1c0-0.3-0.1-0.6-0.3-0.9c-0.1-0.2-0.6-0.5-1.1-1c-0.6-0.5-1.2-1.2-1.5-1.9
	C17.1,5.9,17,5.3,17,4.7c0-2.3,1.8-4.3,4.2-4.7c0,1.1,0.2,2.4,0.8,3.6c0.1,0.2,0.2,0.4,0.3,0.7c0.6,1,1.3,1.9,2,2.6
	c0-0.4,0-0.7,0-1.1c0.1-0.4,0.2-0.8,0.3-1.1c0.2-0.6,0.6-1.1,1-1.4c0.1,0.7,0.2,1.4,0.5,2.2c0.1,0.4,0.3,0.8,0.5,1.1
	c0.6,1.1,1.7,3,1.7,4.6C28.4,12.1,28.3,13,27.8,13.9z"/>
<g>
	<path class="st0" d="M82.3,64.3L82.3,64.3c0,0.7,0,1.1,0,1.3c0,3.8-2.4,6.3-6.1,6.3c-3.9,0-6.9-3.1-6.9-7c0-3.8,3.1-7,6.9-7
		c2.1,0,4,1,5.3,2.5l-2.1,1.9c-0.6-1-1.9-1.7-3.2-1.7c-2.2,0-3.8,1.9-3.8,4.4c0,2.4,1.7,4.1,3.9,4.1c1.6,0,3-1,3.3-2.3L74.9,67
		l0-2.6L82.3,64.3z"/>
	<path class="st0" d="M105.4,71.7h-3.1l-0.8-1.9h-4.6l-0.8,1.9H93l6.1-14L105.4,71.7z M99.1,64.1l-1.4,3.4h2.7L99.1,64.1z"/>
	<path class="st0" d="M118.9,58.5L118.9,58.5l0.3,0.5l0.6,0.9l0.1,0.1l3.3,4.6l2.7-3.7c0-0.1,0.1-0.1,0.1-0.1
		c0.4-0.6,0.7-1.1,0.8-1.3l0.6-0.9l0.1-0.1l2.3,0v0.1c0,0.3,0,0.5,0,0.6c0,0.7-0.1,1.1-0.1,1.3v0.2l0,8v0.1c0,0.4,0,0.8,0.1,1.8
		c0,0.8,0,0.9,0.1,1.2h-3v-0.1c0.1-1,0.1-1.9,0.1-2.4V69v-5.2l-3.8,5.1l-3.8-4.8l0,5.6v0.1c0,0.1,0,0.4,0,0.9c0,0.5,0.1,0.8,0.1,0.9
		c0,0.1,0,0.1,0,0.1h-2.9c0-0.4,0.1-0.5,0.1-1.3c0.1-0.9,0.1-1.4,0.1-1.8v-0.1l0-7.6v-0.1c0-0.2,0-0.7-0.1-1.3c0-0.5-0.1-0.9-0.1-1
		c0-0.1,0-0.1,0-0.1H118.9z"/>
	<path class="st0" d="M150.5,61l-5.7,0v3.6l5.3,0l-0.3,2.5h-0.1h-1.3h-1.6h-0.2l-1.8,0v2.1l5.8-0.1l-0.4,2.5l-8.4,0
		c0-0.3,0-0.3,0.1-1c0-0.7,0-1.2,0-1.3v-0.1v-8.2v-0.1l-0.1-1.2l-0.1-1.3v-0.1h8.6L150.5,61z"/>
	<path class="st0" d="M169.6,62.2c-1-1-1.9-1.4-2.9-1.4c-1,0-1.7,0.5-1.7,1.3c0,0.8,0.6,1.2,2,1.7l0.2,0.1c1.9,0.6,2.8,1.2,3.3,2.2
		c0.3,0.5,0.4,1.1,0.4,1.7c0,2.4-1.9,4.2-4.6,4.2c-1.6,0-3.3-0.7-4.8-2l1.6-2c1.3,1,2.3,1.5,3.3,1.5c0.9,0,1.6-0.6,1.6-1.3
		s-0.5-1-1.9-1.5c-3-0.9-4.3-2.2-4.3-4.3c0-2.3,2-4.2,4.5-4.2c1.6,0,3.1,0.6,4.6,1.7L169.6,62.2z"/>
	<path class="st1" d="M191.3,58.2c2.2,0,3.9,1.6,3.9,3.8c0,1.5-0.4,2.7-1.5,4.7c-0.8,1.3-1,1.7-1.7,2.5l2.1,0h0c0.5,0,1.2,0,1.6-0.1
		l-0.1,2.5H187l1.9-2.7l0.2-0.3c0.9-1.3,2.2-3.5,2.9-5c0.2-0.5,0.4-1.1,0.4-1.7c0-0.8-0.4-1.3-1.2-1.3c-0.8,0-1.6,0.6-2.1,1.8
		l-1.9-1.4C187.9,59.3,189.4,58.2,191.3,58.2z"/>
	<path class="st1" d="M212.8,71.9c-3.1,0-5.1-2.5-5.1-6.5c0-3.1,0.8-5.1,2.4-6.3c0.8-0.6,1.7-0.9,2.7-0.9c3.1,0,5.1,2.7,5.1,6.7
		C217.9,69.3,216,71.9,212.8,71.9z M212.8,60.8c-1.5,0-2.3,1.6-2.3,4.3c0,2.8,0.8,4.2,2.3,4.2s2.3-1.5,2.3-4.2
		C215.1,62.4,214.3,60.8,212.8,60.8z"/>
	<path class="st1" d="M235.6,68.4L235.6,68.4c0,0.5,0,1.1,0,1.8c0,0.6,0,1.1,0.1,1.4v0.1h-3.1c0-0.1,0-0.1,0-0.1
		c0-0.1,0.1-0.4,0.1-0.9l0.1-1.5v-0.1l0.1-7.2v0v-0.1c0-0.7,0-1.4-0.1-2c-0.1-0.6-0.1-0.9-0.1-1c0-0.1,0,0,0-0.1l3-0.3L235.6,68.4z"
		/>
	<path class="st1" d="M260.6,67.3c0,2.6-2.2,4.7-5,4.7c-2.8,0-5-2-5-4.5c0-1.5,0.7-2.7,2-3.6c-0.9-0.8-1.1-1.3-1.1-2.3
		c0-1.9,1.9-3.4,4.2-3.4c2.3,0,4,1.4,4,3.2c0,1.1-0.3,1.7-1.3,2.5C259.9,64.6,260.6,65.8,260.6,67.3z M255.6,65.2
		c-1.2,0-2.1,0.9-2.1,2.2c0,1.2,0.9,2.2,2.2,2.2c1.2,0,2.2-1,2.2-2.2C257.8,66.2,256.8,65.2,255.6,65.2z M255.6,60.3
		c-0.8,0-1.4,0.5-1.4,1.3c0,0.7,0.6,1.2,1.4,1.2c0.9,0,1.5-0.5,1.5-1.2C257.1,60.9,256.5,60.3,255.6,60.3z"/>
</g>
</svg>
